<?xml version="1.0" encoding="utf-8"?>
<!-- Generator: Adobe Illustrator 27.9.0, SVG Export Plug-In . SVG Version: 6.00 Build 0)  -->
<svg version="1.1" xmlns="http://www.w3.org/2000/svg" xmlns:xlink="http://www.w3.org/1999/xlink" x="0px" y="0px"
	 viewBox="0 0 32 32" style="enable-background:new 0 0 32 32;" xml:space="preserve">
<style type="text/css">
	.st0{display:none;}
	.st1{display:inline;fill:url(#SVGID_1_);}
	.st2{display:inline;}
	.st3{fill:url(#SVGID_00000134958096448695227610000012696844959570825142_);}
	.st4{fill:url(#SVGID_00000170278866299971202200000015972890783136585883_);}
	.st5{fill:#FFFFFF;}
</style>
<g id="Standby" class="st0">
	<linearGradient id="SVGID_1_" gradientUnits="userSpaceOnUse" x1="16.5" y1="16.5" x2="16.5" y2="16.5">
		<stop  offset="0" style="stop-color:#2FB881"/>
		<stop  offset="1" style="stop-color:#316BD7"/>
	</linearGradient>
	<path class="st1" d="M26,7c-0.5,0-1.1,0.1-1.5,0.4V5.5c0-1.7-1.4-3-3-3c-0.6,0-1.2,0.2-1.7,0.5c-0.4-1.2-1.5-2-2.8-2
		c-1.3,0-2.4,0.8-2.8,2c-1.4-0.9-3.2-0.5-4.2,0.8C9.7,4.3,9.5,4.9,9.5,5.5v11.1l-2-3.5c-0.4-0.7-1-1.2-1.8-1.4
		c-0.7-0.2-1.5-0.1-2.2,0.3c-1.4,0.8-1.9,2.7-1.2,4.1c0,0.1,1,2.1,4,8c1.4,2.8,3,4.8,4.6,6c1.3,0.9,2.2,1,2.3,1h7.5
		c1.3,0,2.5-0.4,3.5-1.2c1-0.8,1.9-1.9,2.6-3.3c1.4-2.8,2.1-6.7,2.1-11.2V10C29,8.3,27.7,7,26,7L26,7z M27.5,15.3
		c0,4.3-0.7,7.9-2,10.5c-0.8,1.7-2.4,3.7-4.8,3.7h-7.5c-0.1,0-0.7-0.1-1.6-0.8c-0.9-0.7-2.4-2.2-4-5.3c-3-6.1-4-8-4-8l0,0
		c-0.4-0.8-0.1-1.7,0.6-2.2c0.3-0.2,0.7-0.2,1-0.1c0.4,0.1,0.7,0.4,0.9,0.7l0,0l2.3,4.1c0.5,0.9,1,1.2,1.6,1.1
		c0.6-0.1,0.9-0.7,0.9-1.7V5.5C11,4.7,11.7,4,12.5,4C13.3,4,14,4.7,14,5.5v9.8c0,0.4,0.3,0.8,0.8,0.8s0.8-0.3,0.8-0.8V4
		c0-0.8,0.7-1.5,1.5-1.5s1.5,0.7,1.5,1.5v11.3c0,0.4,0.3,0.8,0.8,0.8c0.4,0,0.8-0.3,0.8-0.8V5.5C20,4.7,20.7,4,21.5,4
		C22.3,4,23,4.7,23,5.5v11.3c0,0.4,0.3,0.8,0.8,0.8c0.4,0,0.8-0.3,0.8-0.8V10c0-0.8,0.7-1.5,1.5-1.5s1.5,0.7,1.5,1.5L27.5,15.3
		L27.5,15.3z"/>
</g>
<g id="Ready" class="st0">
	<g class="st2">
		
			<linearGradient id="SVGID_00000013902471776782438590000008596225848051244456_" gradientUnits="userSpaceOnUse" x1="15.4986" y1="2.5" x2="15.4986" y2="29.5">
			<stop  offset="0" style="stop-color:#2FB881"/>
			<stop  offset="1" style="stop-color:#316BD7"/>
		</linearGradient>
		<path style="fill:url(#SVGID_00000013902471776782438590000008596225848051244456_);" d="M27.5,10v5.2h0c0,4.3-0.7,8-2,10.5
			c-0.9,1.7-2.4,3.7-4.8,3.7h-7.5c-0.1,0-0.7-0.1-1.6-0.8c-1-0.7-2.4-2.2-4-5.3c-3-6.1-4-8-4-8v0c-0.4-0.8-0.1-1.7,0.6-2.2
			c0.3-0.2,0.7-0.2,1-0.1c0.4,0.1,0.7,0.4,0.9,0.7l0,0l2.3,4.1c0.5,0.9,1,1.2,1.6,1.1c0.6-0.1,0.9-0.7,0.9-1.7V5.5
			C11,4.7,11.7,4,12.5,4C13.3,4,14,4.7,14,5.5v9.8c0,0.4,0.3,0.8,0.8,0.8c0.4,0,0.8-0.3,0.8-0.8V4c0-0.8,0.7-1.5,1.5-1.5
			c0.8,0,1.5,0.7,1.5,1.5v11.2c0,0.4,0.3,0.8,0.8,0.8c0.4,0,0.8-0.3,0.8-0.8V5.5C20,4.7,20.7,4,21.5,4C22.3,4,23,4.7,23,5.5v11.2
			c0,0.4,0.3,0.8,0.8,0.8c0.4,0,0.8-0.3,0.8-0.8V10c0-0.8,0.7-1.5,1.5-1.5C26.8,8.5,27.5,9.2,27.5,10z"/>
		
			<linearGradient id="SVGID_00000092452036352139411190000010796054562914098875_" gradientUnits="userSpaceOnUse" x1="16.5" y1="16.5" x2="16.5" y2="16.5">
			<stop  offset="0" style="stop-color:#2FB881"/>
			<stop  offset="1" style="stop-color:#316BD7"/>
		</linearGradient>
		<path style="fill:url(#SVGID_00000092452036352139411190000010796054562914098875_);" d="M17,2.5c0.8,0,1.5,0.7,1.5,1.5v11.2
			c0,0.4,0.3,0.8,0.8,0.8c0.4,0,0.8-0.3,0.8-0.8V5.5C20,4.7,20.7,4,21.5,4C22.3,4,23,4.7,23,5.5v11.2c0,0.4,0.3,0.8,0.8,0.8
			c0.4,0,0.8-0.3,0.8-0.8V10c0-0.8,0.7-1.5,1.5-1.5c0.8,0,1.5,0.7,1.5,1.5v5.2h0c0,4.3-0.7,8-2,10.5c-0.9,1.7-2.4,3.7-4.8,3.7h-7.5
			c-0.1,0-0.7-0.1-1.6-0.8c-1-0.7-2.4-2.2-4-5.3c-3-6.1-4-8-4-8v0c-0.4-0.8-0.1-1.7,0.6-2.2C4.5,13.1,4.7,13,4.9,13
			c0.1,0,0.2,0,0.3,0c0.4,0.1,0.7,0.4,0.9,0.7l0,0l2.3,4.1C8.9,18.6,9.4,19,9.9,19c0.1,0,0.2,0,0.2,0c0.6-0.1,0.9-0.7,0.9-1.7V5.5
			C11,4.7,11.7,4,12.5,4C13.3,4,14,4.7,14,5.5v9.8c0,0.4,0.3,0.8,0.8,0.8c0.4,0,0.8-0.3,0.8-0.8V4C15.5,3.2,16.2,2.5,17,2.5 M17,2
			c-1.1,0-2,0.9-2,2v11.2c0,0.1-0.1,0.2-0.2,0.2c-0.1,0-0.2-0.1-0.2-0.2V5.5c0-1.1-0.9-2-2-2s-2,0.9-2,2v11.7c0,0.7-0.2,1.2-0.5,1.3
			c0,0-0.1,0-0.1,0c-0.4,0-0.7-0.5-0.9-0.9l-2.3-4.1l0-0.1l0,0c-0.2-0.4-0.6-0.7-1.1-0.9c-0.2,0-0.3-0.1-0.5-0.1
			c-0.3,0-0.7,0.1-0.9,0.3c-0.9,0.5-1.2,1.7-0.8,2.7v0l0.1,0.1c0.1,0.3,1.1,2.3,4,8c1.6,3.2,3.1,4.7,4.1,5.5
			c1.2,0.9,1.9,0.9,1.9,0.9h7.5c2.1,0,3.9-1.4,5.2-4c1.3-2.5,2-6.1,2-10.3h0l0-0.5V10c0-1.1-0.9-2-2-2c-1.1,0-2,0.9-2,2v6.8
			c0,0.1-0.1,0.2-0.2,0.2c-0.1,0-0.2-0.1-0.2-0.2V5.5c0-1.1-0.9-2-2-2c-1.1,0-2,0.9-2,2v9.8c0,0.1-0.1,0.2-0.2,0.2
			c-0.1,0-0.2-0.1-0.2-0.2V4C19,2.9,18.1,2,17,2L17,2z"/>
	</g>
</g>
<g id="Off">
	<g>
		<path class="st5" d="M16,1.5c0.8,0,1.5,0.7,1.5,1.5v11.2c0,0.4,0.3,0.8,0.8,0.8c0.4,0,0.8-0.3,0.8-0.8V4.5C19,3.7,19.7,3,20.5,3
			C21.3,3,22,3.7,22,4.5v11.2c0,0.4,0.3,0.8,0.8,0.8c0.4,0,0.8-0.3,0.8-0.8V9c0-0.8,0.7-1.5,1.5-1.5c0.8,0,1.5,0.7,1.5,1.5v5.2h0
			c0,4.3-0.7,8-2,10.5c-0.9,1.7-2.4,3.7-4.8,3.7h-7.5c-0.1,0-0.7-0.1-1.6-0.8c-1-0.7-2.4-2.2-4-5.3c-3-6.1-4-8-4-8v0
			c-0.4-0.8-0.1-1.7,0.6-2.2C3.5,12.1,3.7,12,3.9,12c0.1,0,0.2,0,0.3,0c0.4,0.1,0.7,0.4,0.9,0.7l0,0l2.3,4.1C7.9,17.6,8.4,18,8.9,18
			c0.1,0,0.2,0,0.2,0c0.6-0.1,0.9-0.7,0.9-1.7V4.5C10,3.7,10.7,3,11.5,3C12.3,3,13,3.7,13,4.5v9.8c0,0.4,0.3,0.8,0.8,0.8
			c0.4,0,0.8-0.3,0.8-0.8V3C14.5,2.2,15.2,1.5,16,1.5 M16,1.4c-0.9,0-1.6,0.7-1.6,1.6v11.2c0,0.4-0.3,0.6-0.6,0.6
			c-0.4,0-0.7-0.3-0.7-0.6V4.5c0-0.9-0.7-1.6-1.6-1.6c-0.9,0-1.6,0.7-1.6,1.6v11.7c0,1-0.3,1.5-0.8,1.6c-0.1,0-0.1,0-0.2,0
			c-0.5,0-0.9-0.4-1.3-1.1l-2.3-4.1l0,0l0,0c-0.2-0.4-0.5-0.6-0.9-0.7c-0.1,0-0.2,0-0.4,0c-0.3,0-0.5,0.1-0.7,0.2
			c-0.7,0.4-1,1.5-0.6,2.3v0l0,0l0,0c0.3,0.5,1.3,2.7,4,8c1.6,3.1,3,4.6,4,5.3c1,0.8,1.7,0.8,1.7,0.8h7.5c2.5,0,4-2,4.9-3.8
			c1.3-2.6,2-6.2,2-10.5h0l0-0.1V9c0-0.9-0.7-1.6-1.6-1.6c-0.9,0-1.6,0.7-1.6,1.6v6.8c0,0.4-0.3,0.6-0.7,0.6c-0.4,0-0.6-0.3-0.6-0.6
			V4.5c0-0.9-0.7-1.6-1.6-1.6c-0.9,0-1.6,0.7-1.6,1.6v9.8c0,0.4-0.3,0.6-0.7,0.6c-0.4,0-0.6-0.3-0.6-0.6V3C17.6,2.1,16.9,1.4,16,1.4
			L16,1.4z"/>
	</g>
</g>
</svg>
