<?xml version="1.0" encoding="UTF-8"?><svg id="a" xmlns="http://www.w3.org/2000/svg" viewBox="0 0 373.27 476.7"><defs><style>.d,.e{fill:none;stroke:#fff;stroke-linecap:round;stroke-linejoin:round;}.e{stroke-width:2px;}</style></defs><g id="b"><path class="e" d="m175.15,474.97c-2.34-13.3-8.7-25.19-16.61-35.96-5.42-8.67-9.62-18.06-16.17-26-50.06-49.73-46.73-84.28-67.72-146.03-11.58-27.77-36.81-52.68-46.76-79.93-8.19-16.76-20.63-30.61-24.88-47.57-4.02-14.83,2.62-28.49,19.43-25.75,8.47,1.81,14.65,8.01,19.28,15,2.03,1.75,61.31,95.36,62.17,94.32.75-.37-16.62-26.95-31-51-26.43-45.96-24.27-46.71-44-79-4.83-7.75-10.92-21.2-13-29-3.06-11.37,5.24-25.27,17.55-25.33,19.13-.84,38.76,47.21,48.46,62.51,15.15,25.11,29.76,50.48,43.8,76.22,4.66,8.2,6.5,12.96,11.53,19.62,2.57,2.59,5.82-4.08,6.66-6.03-.76-8.64-7.41-21.89-10-29-9.92-22.86-18.41-46.26-27.19-69.96-5.94-22.7-20.37-42.36-28.7-64.18-3.99-12.51,6.91-22.99,18.33-25.16,9.63-.74,18.81,5.61,23.41,13.8,9.61,16.62,15.78,34.84,23.94,52.16,6.3,13.78,13.47,27.18,18.88,41.36,3.11,5.48,20.57,72.58,24.8,63.98,7.22-9.7-7.15-38.48-9.29-50.77-3.99-15.22-6.55-30.82-11.04-45.83-.37-7.1-5.59-12.68-6.99-19.56-4.6-9.85-7.51-20.51-10.69-30.84-1.75-10.01,3.44-20.44,13.59-23.24,13.81-3.66,23.47,11.55,28.39,22.44,10.77,27.89,23.19,55.38,31.35,84.17,10.14,28.09,13.21,58.85,28.6,84.81,4.31,9.08,10.73,16.94,18.22,23.61,4.5,1.86,13.25,14.43,17.57,10.35,2.75-4.64,8.68-7.43,10.59-12.25,1.49-8.31,5.52-15.94,6.1-24.56,1.34-4.97-.24-10.36,2.37-15.02,1.72-4.65.81-9.89,2.46-14.66,4.98-17.61,17.77-33.74,33.83-42.5,10.41-6.6,34.81-1.76,27.36,14.31-6.96,14.42-8.04,30.53-10.26,46.14-2.74,11.27-4.55,22.81-6.03,34.37-1.75,16.52,2.82,33.04.83,49.29-7.38,28.49-19.02,57.92-28.91,85.33-4.3,11.75-11.23,22.15-15.13,34.08-1.32,8.41.99,15.5,3.37,23.07,2.92,9.2,9.34,44.04,12.37,53.23"/><path class="d" d="m239.89,206.06c-9.45,4.91-22.77,13.03-36,26-5.79,5.67-14.81,15.46-35,50-7.97,13.64-18.11,31.86-29,54"/><path class="d" d="m286.89,384.06c-5.84,1.12-30.45,5.15-54-10-4.14-2.66-19.26-12.68-27-32-5.15-12.87-4.1-24.58-2-48,1.85-20.6,2.96-32.98,10-48,7.51-16.03,17.9-26.77,25-33"/><path class="d" d="m106.89,301.06c11.56-4.35,26.38-11.63,41-24,6.04-5.11,17.23-14.74,27-31,7.22-12.02,10.97-23.16,13-31"/><path class="d" d="m169.89,385.06c1.45-25.19,3.81-46.14,6-62,2.14-15.53,4.18-26.69,9-40,3.71-10.25,7.85-18.4,11-24"/><path class="d" d="m347.89,173.06c-4.99-1.43-11.82-2.85-20-3-7.65-.14-14.14.87-19,2"/><path class="d" d="m200.89,60.06c-5.36,2.13-11.37,4.19-18,6-4.55,1.24-8.9,2.22-13,3"/><path class="d" d="m134.89,62.06c-3.43,2.79-8.42,6.24-15,9-5.32,2.23-10.17,3.38-14,4"/><path class="d" d="m78.89,103.06c-2.49,2.83-6.41,6.65-12,10-5.82,3.49-11.24,5.16-15,6"/><path class="d" d="m63.89,170.06c-3.23,3.93-8.73,9.57-17,14-4.82,2.59-9.34,4.09-13,5"/><path class="d" d="m83.89,207.06c-1.73,2.95-5.12,7.82-11,12-5.02,3.57-9.87,5.21-13,6"/><path class="d" d="m161.89,122.06c-3.39,2.97-9.04,7.16-17,10-5.87,2.1-11.13,2.8-15,3"/><path class="d" d="m180.89,179.06c-2.26,2.48-6.17,6.16-12,9-7.02,3.42-13.43,3.96-17,4"/><path class="d" d="m135.89,202.06c-.95,2.63-3.36,8.22-9,13-6.41,5.43-13.25,6.66-16,7"/><path class="d" d="m109.89,228.06c-2.31,5.07-5.78,11.42-11,18-6.29,7.93-12.9,13.41-18,17"/><path class="d" d="m232.89,162.06c-5.46,2.21-12.17,4.44-20,6-5.87,1.17-11.27,1.76-16,2"/><path class="d" d="m216.89,110.06c-4.06,2.88-10.09,6.47-18,9-6.17,1.98-11.71,2.74-16,3"/><path class="d" d="m109.89,156.06c-2.19,3.04-6.32,7.96-13,12-6.84,4.14-13.26,5.49-17,6"/><path class="d" d="m331.89,284.06c-4.87-7.17-11.4-15.53-20-24-9.98-9.83-19.84-16.95-28-22"/></g></svg>